<?xml version="1.0" encoding="utf-8"?>
<!-- Generator: Adobe Illustrator 22.1.0, SVG Export Plug-In . SVG Version: 6.00 Build 0)  -->
<svg version="1.1" id="Layer_1" xmlns="http://www.w3.org/2000/svg" xmlns:xlink="http://www.w3.org/1999/xlink" x="0px" y="0px"
	 viewBox="0 0 315 110" style="enable-background:new 0 0 315 110;" xml:space="preserve">
<style type="text/css">
	.st0{fill:#F04F23;}
	.st1{fill:#247995;}
	.st2{fill:#3D3D3D;}
	.st3{fill:#3A3B3A;}
</style>
<g>
	<path id="path4990_2_" inkscape:connector-curvature="0" inkscape:export-xdpi="90" inkscape:export-ydpi="90" class="st0" d="
		M17.3,15.1c9.7,0,14.5,4.8,14.5,14.4c0,1.4-0.1,2.8-0.3,4.4H7.6c0,7,4.1,10.4,12.2,10.4c3.9,0,7.3-0.4,10.3-1.3v4.9
		c-3,0.9-6.7,1.3-11,1.3c-11.7,0-17.5-5.8-17.5-17.4C1.6,20.7,6.8,15.1,17.3,15.1L17.3,15.1z M7.6,28.9H26c-0.1-6-3-8.9-8.7-8.9
		C11.2,19.9,8,22.9,7.6,28.9z"/>
	<path id="path4992_2_" inkscape:connector-curvature="0" sodipodi:nodetypes="cccc" class="st0" d="M106.3,58.5L1.6,62.4h103
		L106.3,58.5z"/>
	
		<path id="path4994_2_" inkscape:connector-curvature="0" inkscape:export-xdpi="90" inkscape:export-ydpi="90" sodipodi:nodetypes="cccccccccccc" class="st1" d="
		M114.3,62.4h-6.7l25.6-59.5h6.6l19.8,46.3h-6.6l-6-14.6h-18.6l1.7-4.9h15l-8.7-21L114.3,62.4z"/>
	<path id="path4996_2_" inkscape:connector-curvature="0" inkscape:export-xdpi="90" inkscape:export-ydpi="90" class="st0" d="
		M62.8,22.1c-2.4-1.2-5.2-1.7-8.3-1.7c-6.8,0-10.3,3.6-10.3,10.9c0,8.6,3.4,12.9,10.3,12.9c3.1,0,5.9-0.4,8.3-1.3V22.1z M68.7,47.1
		c-4.1,1.4-9.2,2-15.3,2c-10.1,0-15.2-5.9-15.2-17.7c0-10.9,5.4-16.3,16.1-16.3c2.9,0,5.7,0.5,8.3,1.6V2.8h6V47.1L68.7,47.1z"/>
	<path id="path4998_2_" inkscape:connector-curvature="0" inkscape:export-xdpi="90" inkscape:export-ydpi="90" class="st2" d="
		M190.8,48.2c-2.8,0.6-5.8,1-9.1,1c-12.1,0-18.1-5.9-18.1-17.7c0-10.9,6-16.4,18.1-16.4c3.2,0,6.3,0.3,9.1,1V21
		c-2.8-0.6-5.9-1-9.4-1c-7.9,0-11.8,3.8-11.8,11.5c0,8.5,3.9,12.8,11.8,12.8c3.5,0,6.6-0.3,9.4-1V48.2z"/>
	<path id="path5000_2_" inkscape:connector-curvature="0" inkscape:export-xdpi="90" inkscape:export-ydpi="90" class="st2" d="
		M198.4,9.6h3.8l1.3,5.5h9.2V20h-8.3v19.5c0,3.2,1.4,4.8,4.1,4.8h4.1v4.9H207c-5.7,0-8.6-3.1-8.6-9.2L198.4,9.6L198.4,9.6z"/>
	<path id="path5002_2_" inkscape:connector-curvature="0" class="st2" d="M226.9,15.1v34h-6v-34L226.9,15.1L226.9,15.1z"/>
	<path id="path5004_2_" inkscape:connector-curvature="0" class="st2" d="M226.9,2.8v5.7h-6V2.8H226.9z"/>
	<path id="path5006_2_" inkscape:connector-curvature="0" inkscape:export-xdpi="90" inkscape:export-ydpi="90" class="st2" d="
		M232.4,15.1h6.5l9.8,26.7l9.7-26.7h6.5l-13.8,34h-5.6L232.4,15.1L232.4,15.1z"/>
	<path id="path5008_2_" inkscape:connector-curvature="0" class="st1" d="M267.3,52.4l-156.5,6v4h179.5v-4.1c-0.1,0-0.1,0-0.2,0
		c-7.7,0-13.1-2-16.1-5.9L267.3,52.4L267.3,52.4z M286.1,52.4c1.3,0.2,2.7,0.4,4.2,0.4v-0.4H286.1z"/>
	<path id="path5012_2_" inkscape:connector-curvature="0" inkscape:export-xdpi="90" inkscape:export-ydpi="90" class="st0" d="
		M107.9,15.1v34h-4.1l-1-4.3c-4.1,2.9-8.3,4.3-12.4,4.3c-7.8,0-11.7-4.2-11.7-12.7V15.1h6v21.4c0,5.1,2.5,7.6,7.5,7.6
		c3.4,0,6.7-1.4,9.8-4.3V15.1L107.9,15.1L107.9,15.1z"/>
	<path id="path5016_2_" inkscape:connector-curvature="0" sodipodi:nodetypes="cccc" class="st1" d="M249.9,53c7.9,0,17-1.6,17-8.6
		l3.7,11.3L249.9,53z"/>
	<path id="path5065_2_" inkscape:connector-curvature="0" class="st1" d="M290.2,0.8c-6.4,0-11.7,1.2-15.7,4.2c-4,3-6,8-6,13.4
		c0,4.4,1.4,8.5,3.8,11.7c-1.1,1-2.1,2.2-2.8,3.5c-1.8,3.1-2.5,6.9-2.5,11.3c0,4.9,2.3,9.6,6.4,12.8c4.1,3.1,9.8,4.7,16.8,4.7
		c6.9,0,12.7-1.4,16.9-4.9s6.3-9,6.3-15.1c0-4.8-2-9.1-5.4-12.2c2.6-3.2,4-7.3,4-11.7c0-5.4-2-10.3-6-13.4
		C301.9,2,296.6,0.8,290.2,0.8L290.2,0.8z M290.2,5c11.7,0,17.6,4.5,17.6,13.4c0,5.6-2.2,9.6-6.5,12.2c5.3,2.4,8,6.3,8,11.8
		c0,10.6-6.4,15.9-19.1,15.9s-19.1-5.3-19.1-15.9c0-5.4,2.6-9.4,7.8-11.8c-4.2-2.6-6.3-6.6-6.3-12.2C272.6,9.4,278.5,5,290.2,5
		L290.2,5z M289.9,10.6c-7,0-10.5,2.8-10.5,8.5c0,5.8,3.7,8.7,11,8.7c7.1,0,10.6-2.9,10.6-8.7C301,13.4,297.3,10.6,289.9,10.6
		L289.9,10.6z M289.9,14.7c3.2,0,5,0.7,5.8,1.3c0.8,0.6,1.2,1.2,1.2,3.1c0,2.1-0.4,2.7-1.1,3.3c-0.7,0.6-2.4,1.2-5.3,1.2
		c-3.1,0-4.9-0.7-5.7-1.3c-0.8-0.6-1.2-1.3-1.2-3.3c0-2,0.4-2.6,1.1-3.2C285.3,15.4,286.9,14.7,289.9,14.7L289.9,14.7z M289.9,33.3
		c-8,0-12,3.1-12,9.2c0,6.8,4.2,10.2,12.5,10.2c8.1,0,12.1-3.4,12.1-10.2C302.5,36.4,298.3,33.3,289.9,33.3L289.9,33.3z M289.9,37.5
		c3.7,0,5.9,0.7,7,1.5c1,0.8,1.5,1.5,1.5,3.6c0,2.6-0.6,3.7-1.6,4.5c-1,0.8-3,1.6-6.4,1.6c-3.6,0-5.7-0.8-6.7-1.6
		c-1-0.8-1.6-1.9-1.6-4.4c0-2.2,0.4-2.9,1.4-3.6C284.4,38.2,286.4,37.5,289.9,37.5L289.9,37.5z"/>
	<path id="path5077_2_" inkscape:connector-curvature="0" class="st1" d="M289.9,10.4c-7.1,0-10.6,2.9-10.6,8.6
		c0,5.9,3.7,8.8,11.1,8.8c7.1,0,10.7-2.9,10.7-8.8C301.1,13.3,297.4,10.4,289.9,10.4z"/>
	<path id="path5073_2_" inkscape:connector-curvature="0" class="st1" d="M289.9,33.3c-8.1,0-12.1,3.1-12.1,9.3
		c0,6.8,4.2,10.3,12.6,10.3c8.1,0,12.2-3.4,12.2-10.3C302.6,36.4,298.3,33.3,289.9,33.3L289.9,33.3z"/>
</g>
<g>
	<path class="st3" d="M221.7,98.3V84.5c0-1.7-0.4-3-1.1-3.8c-0.7-0.8-1.8-1.3-3.3-1.3c-1,0-1.9,0.2-2.7,0.5
		c-0.7,0.3-1.3,0.8-1.8,1.4c-0.5,0.6-0.8,1.3-1,2.2s-0.3,1.9-0.3,3v11.9h-3.9V84.5c0-1.7-0.4-3-1.1-3.8c-0.7-0.8-1.8-1.3-3.3-1.3
		c-1.1,0-2,0.2-2.8,0.5c-0.7,0.3-1.3,0.8-1.8,1.5c-0.5,0.7-0.8,1.5-1,2.4s-0.3,2.1-0.3,3.3v11.1h-3.9V76.8h3.2l0.6,2.9h0.2
		c0.3-0.6,0.8-1,1.2-1.5c0.5-0.4,1-0.8,1.6-1s1.2-0.5,1.8-0.6c0.6-0.1,1.3-0.2,1.9-0.2c1.7,0,3.1,0.3,4.3,0.9c1.1,0.6,2,1.5,2.5,2.7
		h0.2c0.4-0.6,0.8-1.1,1.3-1.6c0.5-0.4,1.1-0.8,1.7-1.1s1.3-0.5,2-0.7s1.4-0.2,2.1-0.2c2.5,0,4.4,0.6,5.7,1.9c1.3,1.2,1.9,3.2,1.9,6
		v14H221.7z"/>
	<path class="st3" d="M249.9,87.5c0,1.8-0.2,3.4-0.7,4.8c-0.5,1.4-1.2,2.6-2.1,3.5c-0.9,0.9-2,1.7-3.3,2.2s-2.7,0.7-4.3,0.7
		c-1.5,0-2.8-0.2-4.1-0.7c-1.2-0.5-2.3-1.2-3.2-2.2s-1.6-2.1-2.1-3.5c-0.5-1.4-0.8-3-0.8-4.8c0-1.8,0.2-3.4,0.7-4.7
		c0.5-1.4,1.2-2.5,2.1-3.5s2-1.7,3.3-2.2c1.3-0.5,2.7-0.7,4.3-0.7c1.5,0,2.8,0.2,4.1,0.7c1.2,0.5,2.3,1.2,3.2,2.2s1.6,2.1,2.1,3.5
		C249.6,84.2,249.9,85.7,249.9,87.5z M233.4,87.5c0,2.7,0.5,4.8,1.5,6.2c1,1.4,2.6,2.1,4.8,2.1s3.8-0.7,4.8-2.1
		c1-1.4,1.5-3.4,1.5-6.2s-0.5-4.8-1.5-6.1c-1-1.4-2.6-2-4.8-2s-3.8,0.7-4.8,2C233.8,82.7,233.4,84.8,233.4,87.5z"/>
	<path class="st3" d="M264.4,76.4c1.3,0,2.6,0.2,3.7,0.7c1.1,0.5,2,1.2,2.8,2.1c0.8,0.9,1.4,2.1,1.8,3.5s0.6,3,0.6,4.8
		c0,1.8-0.2,3.5-0.6,4.8c-0.4,1.4-1,2.6-1.8,3.5c-0.8,0.9-1.7,1.6-2.8,2.1s-2.3,0.7-3.7,0.7c-0.8,0-1.6-0.1-2.3-0.3
		c-0.7-0.2-1.3-0.4-1.9-0.7c-0.6-0.3-1-0.6-1.5-1c-0.4-0.4-0.8-0.8-1.1-1.2h-0.3l-0.8,2.7h-2.9V67.8h3.9v7.4c0,0.5,0,0.9,0,1.5
		c0,0.5,0,1-0.1,1.4c0,0.5-0.1,1-0.1,1.5h0.2c0.3-0.5,0.7-0.9,1.1-1.3c0.4-0.4,0.9-0.7,1.5-1c0.6-0.3,1.2-0.5,1.9-0.7
		S263.5,76.4,264.4,76.4z M263.6,79.4c-1.1,0-2.1,0.2-2.9,0.5c-0.8,0.3-1.4,0.8-1.8,1.5c-0.5,0.7-0.8,1.5-1,2.5
		c-0.2,1-0.3,2.2-0.3,3.6c0,1.3,0.1,2.5,0.3,3.5s0.5,1.9,1,2.6c0.5,0.7,1.1,1.2,1.9,1.6c0.8,0.4,1.7,0.5,2.9,0.5
		c1.9,0,3.4-0.7,4.3-2.1c0.9-1.4,1.4-3.5,1.4-6.1c0-2.7-0.5-4.7-1.4-6.1S265.6,79.4,263.6,79.4z"/>
	<path class="st3" d="M276.9,71c0-0.8,0.2-1.4,0.7-1.7c0.4-0.4,1-0.5,1.6-0.5c0.3,0,0.6,0,0.9,0.1s0.5,0.2,0.7,0.4
		c0.2,0.2,0.4,0.4,0.5,0.7c0.1,0.3,0.2,0.6,0.2,1c0,0.8-0.2,1.3-0.7,1.7c-0.5,0.4-1,0.6-1.6,0.6c-0.6,0-1.2-0.2-1.6-0.5
		C277.1,72.3,276.9,71.7,276.9,71z M281.1,98.3h-3.9V76.8h3.9V98.3z"/>
	<path class="st3" d="M290,98.3h-3.9V67.8h3.9V98.3z"/>
	<path class="st3" d="M304.5,98.7c-1.6,0-3-0.2-4.3-0.7s-2.4-1.2-3.4-2.1s-1.7-2.1-2.2-3.4c-0.5-1.4-0.8-2.9-0.8-4.7
		c0-1.8,0.2-3.4,0.7-4.8s1.1-2.6,2-3.6c0.9-1,1.9-1.7,3.1-2.2c1.2-0.5,2.5-0.8,4-0.8c1.4,0,2.7,0.2,3.8,0.7c1.1,0.5,2.1,1.1,2.9,2
		c0.8,0.8,1.4,1.9,1.8,3c0.4,1.2,0.6,2.5,0.6,3.9v2.2h-14.9c0.1,2.5,0.7,4.4,1.8,5.6c1.1,1.2,2.7,1.8,4.9,1.8c0.7,0,1.4,0,2-0.1
		s1.2-0.2,1.8-0.3s1.1-0.3,1.7-0.5c0.5-0.2,1.1-0.4,1.7-0.6v3.2c-0.6,0.2-1.1,0.5-1.7,0.6c-0.6,0.2-1.1,0.3-1.7,0.5
		c-0.6,0.1-1.2,0.2-1.8,0.3C305.9,98.7,305.3,98.7,304.5,98.7z M303.6,79.4c-1.6,0-2.9,0.5-3.9,1.5c-1,1-1.5,2.5-1.7,4.4h10.6
		c0-0.9-0.1-1.7-0.3-2.4s-0.5-1.4-0.9-1.9c-0.4-0.5-0.9-0.9-1.6-1.2C305.2,79.5,304.4,79.4,303.6,79.4z"/>
</g>
</svg>
